<?xml version="1.0" encoding="UTF-8"?>
<svg id="Layer_2" data-name="Layer 2" xmlns="http://www.w3.org/2000/svg" viewBox="0 0 3363.45 2626.39">
  <defs>
    <style>
      .cls-1 {
        fill: #fff;
      }
    </style>
  </defs>
  <g id="Layer_1-2" data-name="Layer 1">
    <g>
      <polygon class="cls-1" points="750.47 2104.59 819.98 2104.59 819.98 2282.12 848.65 2282.12 848.65 2104.59 918.16 2104.59 918.16 2079.39 750.47 2079.39 750.47 2104.59"/>
      <path class="cls-1" d="m1018.08,2153.82h3.04c1.06,0,2.17.1,3.33.29v-26.93c-14.68,0-27.03,2.8-37.07,8.4-8.23,4.59-14.49,10.9-18.82,18.87v-25.82h-26.64v153.5h27.8v-76.46c0-16.8,4.35-29.64,13.03-38.52,8.69-8.88,20.46-13.32,35.33-13.32Z"/>
      <path class="cls-1" d="m1142.62,2282.12h26.36v-92.68c0-21.04-5.7-36.68-17.09-46.92-11.39-10.23-27.61-15.35-48.65-15.35-12.16,0-23.8,1.69-34.9,5.07-11.1,3.38-20.61,8.25-28.53,14.63l11.58,20.85c5.98-5.02,13.32-9.02,22.01-12.02,8.69-2.99,17.57-4.49,26.64-4.49,13.71,0,23.99,3.24,30.84,9.7,6.85,6.47,10.28,15.6,10.28,27.37v5.5h-44.02c-15.25,0-27.37,2.03-36.35,6.08-8.98,4.06-15.45,9.46-19.41,16.22-3.96,6.76-5.94,14.29-5.94,22.59s2.32,16.46,6.95,23.32c4.63,6.85,11.24,12.21,19.84,16.07,8.59,3.86,18.58,5.79,29.98,5.79,14.09,0,25.78-2.65,35.04-7.96,6.51-3.73,11.6-8.4,15.35-13.99v20.21Zm-18.39-26.64c-7.82,4.64-16.94,6.95-27.37,6.95s-18.93-2.27-24.91-6.81c-5.99-4.53-8.98-10.57-8.98-18.1,0-6.56,2.41-12.16,7.24-16.8,4.82-4.63,14.19-6.95,28.09-6.95h42.86v21.43c-3.48,8.88-9.12,15.64-16.94,20.27Z"/>
      <polygon class="cls-1" points="1326.23 2128.62 1272.43 2251.6 1219.65 2128.62 1190.69 2128.62 1257.88 2282.12 1286.26 2282.12 1353.45 2128.62 1326.23 2128.62"/>
      <path class="cls-1" d="m1513.75,2210.3c.1-1.54.14-2.9.14-4.06,0-15.83-3.23-29.68-9.7-41.56-6.47-11.87-15.4-21.09-26.79-27.66-11.39-6.56-24.52-9.85-39.39-9.85s-27.85,3.33-39.53,9.99c-11.68,6.66-20.85,15.88-27.51,27.66-6.66,11.78-9.99,25.3-9.99,40.55s3.43,28.77,10.28,40.55c6.85,11.78,16.51,21.05,28.96,27.8,12.45,6.76,26.88,10.14,43.3,10.14,12.74,0,24.28-2.12,34.61-6.37,10.33-4.25,18.97-10.43,25.92-18.54l-15.35-17.96c-5.6,6.18-12.12,10.82-19.55,13.9-7.43,3.09-15.69,4.63-24.76,4.63-11,0-20.76-2.22-29.25-6.66-8.5-4.44-15.11-10.66-19.84-18.68-3.49-5.91-5.69-12.43-6.6-19.55h124.62c.19-1.35.33-2.79.43-4.34Zm-101.51-53.14c7.53-4.35,16.12-6.52,25.78-6.52s18.49,2.17,25.92,6.52c7.43,4.34,13.27,10.38,17.52,18.1,3.22,5.86,5.16,12.33,5.83,19.4h-98.65c.81-7.03,2.79-13.45,5.94-19.26,4.25-7.82,10.14-13.9,17.67-18.24Z"/>
      <rect class="cls-1" x="1552.42" y="2067.22" width="27.8" height="214.89"/>
      <path class="cls-1" d="m1836.39,2258.37l27.07,26.94,15.64-18.53-27.34-27.2c8.27-12.91,14.22-28.34,17.79-46.37l-22.3-7.24c-2.81,14.19-7,26.39-12.55,36.63l-49.99-49.73c7.63-4.32,14.11-8.46,19.39-12.39,8.3-6.18,14.34-12.55,18.1-19.11,3.77-6.56,5.65-13.71,5.65-21.43,0-8.88-2.08-16.46-6.23-22.74-4.15-6.27-9.99-11.1-17.52-14.48-7.53-3.37-16.41-5.07-26.64-5.07-11,0-20.61,1.88-28.82,5.65-8.21,3.77-14.58,9.08-19.12,15.93-4.54,6.85-6.81,14.82-6.81,23.89,0,5.21.87,10.33,2.61,15.35,1.74,5.02,4.53,10.19,8.4,15.49,3.33,4.58,7.74,9.69,13.22,15.34-9.33,5.34-17.23,10.56-23.64,15.65-8.88,7.05-15.35,14.34-19.41,21.87-4.05,7.53-6.08,15.83-6.08,24.91,0,10.43,3.08,19.6,9.27,27.51,6.18,7.92,14.58,14.1,25.2,18.54,10.62,4.44,22.78,6.66,36.49,6.66,17.18,0,32.63-3.57,46.34-10.72,7.81-4.07,14.89-9.21,21.29-15.35Zm-80.23-153.64c5.11-4.54,12.21-6.81,21.29-6.81s15.35,2.08,19.98,6.23c4.64,4.15,6.95,9.51,6.95,16.07,0,4.83-1.4,9.32-4.2,13.47-2.8,4.15-7.53,8.54-14.19,13.18-4.48,3.12-10.14,6.59-16.93,10.4-4.97-5.07-8.89-9.36-11.74-12.86-3.38-4.15-5.7-7.91-6.95-11.29-1.26-3.38-1.88-6.9-1.88-10.57,0-7.33,2.56-13.27,7.68-17.81Zm14.34,156.54c-9.08,0-17.04-1.35-23.89-4.05-6.85-2.7-12.16-6.52-15.93-11.44-3.77-4.92-5.65-10.57-5.65-16.94,0-5.98,1.4-11.49,4.2-16.51,2.8-5.02,7.48-10.09,14.05-15.2,4.95-3.86,11.34-7.97,19.16-12.33l57.67,57.38c-4.42,4.29-9.27,7.86-14.57,10.7-10.43,5.6-22.11,8.4-35.04,8.4Z"/>
      <polygon class="cls-1" points="2130.19 2079.39 1962.51 2079.39 1962.51 2104.59 2032.01 2104.59 2032.01 2282.12 2060.69 2282.12 2060.69 2104.59 2130.19 2104.59 2130.19 2079.39"/>
      <path class="cls-1" d="m2166.39,2273.72c11.97,6.76,25.68,10.14,41.13,10.14s28.91-3.38,40.98-10.14c12.06-6.75,21.53-16.02,28.38-27.8,6.85-11.78,10.28-25.29,10.28-40.55s-3.43-29.01-10.28-40.69c-6.86-11.68-16.32-20.85-28.38-27.51-12.07-6.66-25.73-9.99-40.98-9.99s-29.16,3.33-41.13,9.99c-11.97,6.66-21.43,15.88-28.38,27.66-6.95,11.78-10.43,25.3-10.43,40.55s3.48,28.53,10.43,40.4c6.95,11.87,16.41,21.19,28.38,27.95Zm-3.76-96.88c4.63-8.01,10.81-14.24,18.53-18.68,7.72-4.44,16.51-6.66,26.36-6.66s18.68,2.22,26.5,6.66c7.82,4.44,13.95,10.67,18.39,18.68,4.44,8.01,6.66,17.52,6.66,28.53s-2.22,20.32-6.66,28.53c-4.44,8.21-10.57,14.53-18.39,18.97-7.82,4.44-16.65,6.66-26.5,6.66s-18.63-2.22-26.36-6.66c-7.72-4.44-13.9-10.76-18.53-18.97-4.64-8.2-6.95-17.71-6.95-28.53s2.32-20.51,6.95-28.53Z"/>
      <path class="cls-1" d="m2424.15,2275.46c7.47-4.17,13.55-9.63,18.25-16.37v23.03h26.36v-153.5h-27.8v79.36c0,10.81-1.93,20.03-5.79,27.66-3.86,7.63-9.37,13.42-16.51,17.38-7.15,3.96-15.54,5.94-25.2,5.94-13.13,0-23.32-3.76-30.55-11.29-7.24-7.53-10.86-18.82-10.86-33.88v-85.15h-27.8v88.33c0,15.06,2.75,27.56,8.25,37.5,5.5,9.95,13.22,17.33,23.17,22.16,9.94,4.83,21.48,7.24,34.61,7.24s23.84-2.8,33.88-8.4Z"/>
      <path class="cls-1" d="m2548.39,2154.44v-25.82h-26.64v153.5h27.8v-76.46c0-16.8,4.35-29.64,13.03-38.52,8.69-8.88,20.46-13.32,35.33-13.32h3.04c1.06,0,2.17.1,3.33.29v-26.93c-14.68,0-27.03,2.8-37.07,8.4-8.23,4.59-14.49,10.9-18.82,18.87Z"/>
      <polygon class="cls-1" points="232.8 2501.18 319.48 2501.18 319.48 2480.19 232.8 2480.19 232.8 2427.09 330.1 2427.09 330.1 2405.6 208.1 2405.6 208.1 2578.48 333.56 2578.48 333.56 2556.99 232.8 2556.99 232.8 2501.18"/>
      <polygon class="cls-1" points="474.83 2447.59 448.89 2447.59 412.96 2494.77 377.03 2447.59 350.6 2447.59 399.67 2511.57 348.13 2578.48 374.56 2578.48 412.76 2528.28 450.62 2578.48 477.54 2578.48 425.5 2511.49 474.83 2447.59"/>
      <path class="cls-1" d="m606.95,2454.75c-9.88-5.59-21.24-8.4-34.08-8.4-11.2,0-21.28,2.47-30.25,7.41-6.46,3.56-11.93,8.42-16.42,14.53v-20.71h-22.72v178.8h23.71v-67.8c4.46,5.75,9.75,10.39,15.93,13.84,8.97,5.02,18.89,7.53,29.76,7.53,12.84,0,24.2-2.8,34.08-8.4,9.88-5.6,17.7-13.42,23.46-23.46,5.76-10.04,8.64-21.73,8.64-35.07s-2.88-24.98-8.64-34.94c-5.77-9.96-13.58-17.74-23.46-23.34Zm2.35,82.61c-3.87,7-9.14,12.39-15.81,16.18-6.67,3.79-14.2,5.68-22.6,5.68s-15.68-1.89-22.35-5.68c-6.67-3.79-11.94-9.18-15.8-16.18-3.87-7-5.8-15.1-5.8-24.33s1.93-17.49,5.8-24.32c3.86-6.83,9.14-12.14,15.8-15.93,6.67-3.79,14.12-5.68,22.35-5.68s15.93,1.89,22.6,5.68c6.67,3.79,11.94,9.1,15.81,15.93,3.87,6.83,5.8,14.94,5.8,24.32s-1.94,17.33-5.8,24.33Z"/>
      <path class="cls-1" d="m759.08,2454.75c-9.72-5.59-20.91-8.4-33.59-8.4s-23.75,2.84-33.71,8.52c-9.96,5.68-17.78,13.54-23.46,23.59-5.68,10.04-8.52,21.57-8.52,34.57s2.92,24.54,8.77,34.58c5.84,10.04,14.08,17.95,24.7,23.71,10.62,5.77,22.93,8.64,36.92,8.64,10.87,0,20.7-1.81,29.51-5.43,8.81-3.62,16.18-8.89,22.11-15.81l-13.09-15.31c-4.78,5.27-10.33,9.22-16.67,11.85-6.34,2.63-13.38,3.95-21.12,3.95-9.38,0-17.7-1.89-24.94-5.68-7.25-3.79-12.89-9.1-16.92-15.93-2.98-5.04-4.85-10.6-5.63-16.67h106.27c.16-1.15.29-2.39.37-3.7.08-1.32.12-2.47.12-3.46,0-13.5-2.76-25.31-8.27-35.44-5.52-10.13-13.13-17.99-22.84-23.59Zm-55.57,17.16c6.42-3.7,13.75-5.56,21.98-5.56s15.76,1.85,22.11,5.56c6.34,3.7,11.32,8.85,14.94,15.44,2.74,5,4.4,10.51,4.97,16.55h-84.13c.69-6,2.38-11.47,5.07-16.42,3.62-6.67,8.64-11.85,15.06-15.56Z"/>
      <path class="cls-1" d="m845.76,2469.6v-22.01h-22.72v130.89h23.71v-65.2c0-14.32,3.7-25.27,11.11-32.85,7.41-7.57,17.45-11.36,30.13-11.36h2.59c.9,0,1.85.09,2.84.25v-22.97c-12.52,0-23.06,2.39-31.61,7.16-7.02,3.92-12.35,9.29-16.05,16.09Z"/>
      <path class="cls-1" d="m934.42,2391.52c-4.61,0-8.44,1.48-11.48,4.45-3.05,2.96-4.57,6.67-4.57,11.11s1.52,7.9,4.57,10.87c3.04,2.96,6.87,4.44,11.48,4.44s8.64-1.52,11.61-4.57c2.96-3.04,4.45-6.79,4.45-11.24s-1.52-7.86-4.57-10.74c-3.05-2.88-6.88-4.32-11.48-4.32Z"/>
      <rect class="cls-1" x="922.57" y="2447.59" width="23.71" height="130.89"/>
      <path class="cls-1" d="m1078.65,2454.75c-9.72-5.59-20.91-8.4-33.59-8.4s-23.75,2.84-33.71,8.52c-9.96,5.68-17.78,13.54-23.46,23.59-5.68,10.04-8.52,21.57-8.52,34.57s2.92,24.54,8.77,34.58c5.84,10.04,14.08,17.95,24.7,23.71,10.62,5.77,22.93,8.64,36.92,8.64,10.87,0,20.7-1.81,29.51-5.43,8.81-3.62,16.18-8.89,22.1-15.81l-13.09-15.31c-4.78,5.27-10.33,9.22-16.67,11.85-6.34,2.63-13.38,3.95-21.12,3.95-9.38,0-17.7-1.89-24.94-5.68-7.25-3.79-12.88-9.1-16.92-15.93-2.98-5.04-4.85-10.6-5.63-16.67h106.27c.16-1.15.29-2.39.37-3.7.08-1.32.12-2.47.12-3.46,0-13.5-2.76-25.31-8.27-35.44-5.52-10.13-13.13-17.99-22.84-23.59Zm-55.57,17.16c6.42-3.7,13.75-5.56,21.98-5.56s15.76,1.85,22.1,5.56c6.34,3.7,11.32,8.85,14.94,15.44,2.74,5,4.4,10.51,4.97,16.55h-84.13c.69-6,2.38-11.47,5.07-16.42,3.62-6.67,8.64-11.85,15.06-15.56Z"/>
      <path class="cls-1" d="m1240.78,2452.53c-8.15-4.11-17.58-6.18-28.28-6.18-11.85,0-22.23,2.39-31.12,7.16-6.64,3.56-11.98,8.19-16.05,13.86v-19.78h-22.72v130.89h23.71v-67.42c0-9.55,1.69-17.53,5.06-23.96,3.37-6.42,8.19-11.28,14.45-14.57,6.25-3.29,13.58-4.94,21.98-4.94,11.19,0,19.88,3.21,26.06,9.63,6.17,6.42,9.26,15.97,9.26,28.65v72.61h23.71v-75.32c0-12.84-2.31-23.46-6.92-31.86-4.61-8.4-10.99-14.65-19.14-18.77Z"/>
      <path class="cls-1" d="m1344.63,2472.78c6.75-3.79,14.41-5.68,22.97-5.68,7.08,0,13.71,1.52,19.88,4.57,6.18,3.05,11.4,7.78,15.68,14.2l18.03-11.61c-5.11-9.22-12.31-16.18-21.61-20.87-9.3-4.69-19.88-7.04-31.73-7.04-13.34,0-25.23,2.84-35.69,8.52-10.46,5.68-18.65,13.54-24.57,23.59-5.93,10.04-8.89,21.57-8.89,34.57s2.96,24.54,8.89,34.58c5.93,10.04,14.12,17.95,24.57,23.71,10.45,5.77,22.35,8.64,35.69,8.64,11.85,0,22.43-2.43,31.73-7.28,9.3-4.86,16.51-11.81,21.61-20.87l-18.03-11.36c-4.28,6.42-9.51,11.16-15.68,14.2-6.17,3.05-12.8,4.57-19.88,4.57-8.56,0-16.22-1.89-22.97-5.68-6.75-3.79-12.1-9.14-16.05-16.05-3.95-6.92-5.93-15.06-5.93-24.45s1.98-17.49,5.93-24.32c3.95-6.83,9.3-12.14,16.05-15.93Z"/>
      <path class="cls-1" d="m1537.01,2454.75c-9.72-5.59-20.91-8.4-33.59-8.4s-23.75,2.84-33.71,8.52c-9.96,5.68-17.78,13.54-23.46,23.59-5.68,10.04-8.52,21.57-8.52,34.57s2.92,24.54,8.77,34.58c5.84,10.04,14.08,17.95,24.7,23.71,10.62,5.77,22.93,8.64,36.92,8.64,10.87,0,20.7-1.81,29.51-5.43,8.81-3.62,16.18-8.89,22.1-15.81l-13.09-15.31c-4.78,5.27-10.33,9.22-16.67,11.85-6.34,2.63-13.38,3.95-21.12,3.95-9.38,0-17.7-1.89-24.94-5.68-7.25-3.79-12.88-9.1-16.92-15.93-2.98-5.04-4.85-10.6-5.63-16.67h106.27c.16-1.15.29-2.39.37-3.7.08-1.32.12-2.47.12-3.46,0-13.5-2.76-25.31-8.27-35.44-5.52-10.13-13.13-17.99-22.84-23.59Zm-55.57,17.16c6.42-3.7,13.75-5.56,21.98-5.56s15.76,1.85,22.1,5.56c6.34,3.7,11.32,8.85,14.94,15.44,2.74,5,4.4,10.51,4.97,16.55h-84.13c.69-6,2.38-11.47,5.07-16.42,3.62-6.67,8.64-11.85,15.06-15.56Z"/>
      <path class="cls-1" d="m1715.07,2559.95c-6.59,0-11.65-1.89-15.19-5.68-3.54-3.78-5.31-9.22-5.31-16.3v-70.88h37.54v-19.51h-37.54v-28.65h-23.71v28.65h-22.23v19.51h22.23v71.87c0,13.18,3.62,23.3,10.87,30.38,7.24,7.08,17.45,10.62,30.62,10.62,5.43,0,10.66-.74,15.68-2.22,5.02-1.48,9.34-3.79,12.96-6.92l-7.41-17.04c-4.94,4.12-11.11,6.17-18.52,6.17Z"/>
      <path class="cls-1" d="m1867.82,2452.53c-8.15-4.11-17.58-6.18-28.28-6.18-11.85,0-22.23,2.39-31.12,7.16-6.12,3.29-11.13,7.5-15.06,12.58v-70.87h-23.71v183.25h23.71v-67.42c0-9.55,1.69-17.53,5.06-23.96,3.37-6.42,8.19-11.28,14.45-14.57,6.25-3.29,13.58-4.94,21.98-4.94,11.19,0,19.88,3.21,26.06,9.63,6.17,6.42,9.26,15.97,9.26,28.65v72.61h23.71v-75.32c0-12.84-2.31-23.46-6.92-31.86-4.61-8.4-10.99-14.65-19.14-18.77Z"/>
      <path class="cls-1" d="m2025.01,2454.75c-9.72-5.59-20.91-8.4-33.59-8.4s-23.75,2.84-33.71,8.52c-9.96,5.68-17.78,13.54-23.46,23.59-5.68,10.04-8.52,21.57-8.52,34.57s2.92,24.54,8.77,34.58c5.84,10.04,14.08,17.95,24.7,23.71,10.62,5.77,22.93,8.64,36.92,8.64,10.87,0,20.7-1.81,29.51-5.43,8.81-3.62,16.18-8.89,22.1-15.81l-13.09-15.31c-4.78,5.27-10.33,9.22-16.67,11.85-6.34,2.63-13.38,3.95-21.12,3.95-9.38,0-17.7-1.89-24.94-5.68-7.25-3.79-12.88-9.1-16.92-15.93-2.98-5.04-4.85-10.6-5.63-16.67h106.27c.16-1.15.29-2.39.37-3.7.08-1.32.12-2.47.12-3.46,0-13.5-2.76-25.31-8.27-35.44-5.52-10.13-13.13-17.99-22.84-23.59Zm-55.57,17.16c6.42-3.7,13.75-5.56,21.98-5.56s15.76,1.85,22.1,5.56c6.34,3.7,11.32,8.85,14.94,15.44,2.74,5,4.4,10.51,4.97,16.55h-84.13c.69-6,2.38-11.47,5.07-16.42,3.62-6.67,8.64-11.85,15.06-15.56Z"/>
      <polygon class="cls-1" points="2293.23 2552.18 2254.44 2447.59 2234.44 2447.59 2194.9 2551.85 2156.89 2447.59 2134.42 2447.59 2183.07 2578.48 2205.79 2578.48 2244.05 2479.32 2281.85 2578.48 2304.57 2578.48 2353.47 2447.59 2332.23 2447.59 2293.23 2552.18"/>
      <path class="cls-1" d="m2464.73,2454.87c-10.29-5.68-21.94-8.52-34.95-8.52s-24.86,2.84-35.07,8.52c-10.21,5.68-18.28,13.54-24.2,23.59-5.93,10.04-8.89,21.57-8.89,34.57s2.96,24.33,8.89,34.45c5.93,10.13,13.99,18.07,24.2,23.83,10.21,5.77,21.89,8.64,35.07,8.64s24.65-2.88,34.95-8.64c10.29-5.76,18.36-13.66,24.2-23.71,5.84-10.04,8.77-21.57,8.77-34.58s-2.93-24.73-8.77-34.7c-5.85-9.96-13.92-17.78-24.2-23.46Zm3.33,82.49c-3.79,7-9.01,12.39-15.68,16.18-6.67,3.79-14.2,5.68-22.6,5.68s-15.89-1.89-22.47-5.68c-6.59-3.79-11.85-9.18-15.8-16.18-3.95-7-5.93-15.1-5.93-24.33s1.98-17.49,5.93-24.32c3.95-6.83,9.22-12.14,15.8-15.93,6.58-3.79,14.08-5.68,22.47-5.68s15.93,1.89,22.6,5.68c6.67,3.79,11.89,9.1,15.68,15.93,3.79,6.83,5.68,14.94,5.68,24.32s-1.89,17.33-5.68,24.33Z"/>
      <path class="cls-1" d="m2553.26,2469.6v-22.02h-22.72v130.89h23.71v-65.2c0-14.32,3.7-25.27,11.11-32.85,7.41-7.57,17.45-11.36,30.13-11.36h2.59c.9,0,1.85.09,2.84.25v-22.97c-12.51,0-23.05,2.39-31.61,7.16-7.02,3.92-12.35,9.3-16.05,16.09Z"/>
      <rect class="cls-1" x="2630.07" y="2395.23" width="23.71" height="183.25"/>
      <path class="cls-1" d="m2798.74,2467.48c-4.44-5.73-9.69-10.32-15.81-13.72-8.89-4.94-18.85-7.41-29.88-7.41-12.68,0-24,2.8-33.96,8.4-9.96,5.6-17.82,13.38-23.58,23.34-5.77,9.96-8.64,21.61-8.64,34.94s2.88,25.03,8.64,35.07c5.76,10.04,13.62,17.87,23.58,23.46,9.96,5.6,21.28,8.4,33.96,8.4,11.36,0,21.49-2.51,30.38-7.53,6.4-3.61,11.82-8.51,16.3-14.63v20.68h22.72v-183.25h-23.71v72.25Zm-5.56,69.88c-3.87,7-9.14,12.39-15.81,16.18-6.67,3.79-14.12,5.68-22.35,5.68s-15.89-1.89-22.47-5.68c-6.59-3.79-11.85-9.18-15.8-16.18-3.95-7-5.93-15.1-5.93-24.33s1.98-17.49,5.93-24.32c3.95-6.83,9.22-12.14,15.8-15.93,6.58-3.79,14.08-5.68,22.47-5.68s15.68,1.89,22.35,5.68c6.67,3.79,11.94,9.1,15.81,15.93,3.87,6.83,5.8,14.94,5.8,24.32s-1.94,17.33-5.8,24.33Z"/>
      <path class="cls-1" d="m2873.08,2546.12c-4.61,0-8.56,1.57-11.86,4.69-3.3,3.13-4.94,7.16-4.94,12.1s1.64,9.01,4.94,12.23c3.29,3.21,7.24,4.82,11.86,4.82s8.27-1.61,11.48-4.82,4.82-7.29,4.82-12.23-1.61-8.97-4.82-12.1c-3.21-3.13-7.04-4.69-11.48-4.69Z"/>
      <path class="cls-1" d="m2929.14,2546.12c-4.61,0-8.56,1.57-11.86,4.69-3.3,3.13-4.94,7.16-4.94,12.1s1.64,9.01,4.94,12.23c3.29,3.21,7.24,4.82,11.86,4.82s8.27-1.61,11.48-4.82c3.21-3.21,4.82-7.29,4.82-12.23s-1.61-8.97-4.82-12.1c-3.21-3.13-7.04-4.69-11.48-4.69Z"/>
      <path class="cls-1" d="m2985.2,2546.12c-4.61,0-8.56,1.57-11.86,4.69-3.3,3.13-4.94,7.16-4.94,12.1s1.64,9.01,4.94,12.23c3.29,3.21,7.24,4.82,11.86,4.82s8.27-1.61,11.48-4.82,4.82-7.29,4.82-12.23-1.61-8.97-4.82-12.1c-3.21-3.13-7.04-4.69-11.48-4.69Z"/>
      <path class="cls-1" d="m3041.25,2546.12c-4.61,0-8.56,1.57-11.86,4.69-3.3,3.13-4.94,7.16-4.94,12.1s1.64,9.01,4.94,12.23c3.29,3.21,7.24,4.82,11.86,4.82s8.27-1.61,11.48-4.82c3.21-3.21,4.82-7.29,4.82-12.23s-1.61-8.97-4.82-12.1c-3.21-3.13-7.04-4.69-11.48-4.69Z"/>
      <path class="cls-1" d="m3097.31,2546.12c-4.61,0-8.56,1.57-11.86,4.69-3.3,3.13-4.94,7.16-4.94,12.1s1.64,9.01,4.94,12.23c3.29,3.21,7.24,4.82,11.86,4.82s8.27-1.61,11.48-4.82,4.82-7.29,4.82-12.23-1.61-8.97-4.82-12.1c-3.21-3.13-7.04-4.69-11.48-4.69Z"/>
      <path class="cls-1" d="m3153.37,2546.12c-4.61,0-8.56,1.57-11.86,4.69-3.3,3.13-4.94,7.16-4.94,12.1s1.64,9.01,4.94,12.23c3.29,3.21,7.24,4.82,11.86,4.82s8.27-1.61,11.48-4.82,4.82-7.29,4.82-12.23-1.61-8.97-4.82-12.1c-3.21-3.13-7.04-4.69-11.48-4.69Z"/>
      <path class="cls-1" d="m915.6,463.73c25.62,16.27,51.53,32.02,77.51,47.72,10.96,6.62,11.63,11.69,4.11,21.54-2.78,3.64-5.19,11.41-3.3,13.85,2.64,3.42,9.74,5.52,14.43,4.82,12.93-1.93,17.37.49,18.54,12.95,2.58,27.67,5.02,55.36,7.95,82.99.58,5.43,2.11,12.22,9.26,12.32,4.8.07,10.9-1.23,14.24-4.29,9.46-8.67,17.58-18.79,26.65-27.91,6.69-6.73,10.25-14.07,10.1-23.85-.35-23.79,1.34-47.84-.58-71.48-.61-7.51-.31-15.61,4.04-21.76,5.94-8.39,19.24-13.93,27.84-18.89,14.16-8.18,28.88-15.29,42.93-23.52,35.39-20.73,70.77-41.46,106.15-62.19,37.05-21.71,73.6-46.09,112.24-64.86,5.83-2.83,13.4-4.93,17.46,1.64,4.66,7.54,5.14,18.51,6.34,27.08,1.37,9.84,4.92,26.98-1.38,35.56-1.61,2.19-3.55,4.17-4.74,6.61-1.99,4.11-1.49,9.29,1.18,13,2.29,3.17,6.33,4.44,8.42,7.58,3.8,5.71,4.26,16.21,5.6,22.76,1.71,8.41,3.21,16.85,4.57,25.32,2.64,16.42,4.73,32.93,6.67,49.44.9,7.67,1.82,15.34,2.81,22.99,5.71,43.78,12.5,87.42,20.16,130.9,3.44,19.52,20.64,6.41,28.12-1.91,12.01-13.36,24.74-26.07,38.11-38.05,12.49-11.19,26.35-23.06,24.98-41.41-2.39-31.91-5.61-63.76-7.46-95.7-1.5-25.94-1.61-51.97-2.18-77.94-.09-4.22-.13-8.67,1.88-12.38,2.71-4.99,8.41-7.42,12.62-11.23,6.43-5.81,9.21-14.83,9.3-23.5.14-13.64-2.86-37.11-19.9-39.07-5.35-.62-11.89.56-15.17-3.71-1.32-1.72-1.72-3.94-2.08-6.08-2.96-17.59-5.92-35.18-8.89-52.78-1.18-7-2.36-14.17-1.14-21.16,3.44-19.76,31.46-29.63,46.05-39.89,67.93-47.8,135.99-103.55,181.58-173.91,3.25-5.02,6.4-10.27,7.65-16.11s.31-12.47-3.79-16.83c-5.64-5.99-15.07-5.96-23.22-4.85-18.64,2.55-34.85,9.76-52.31,16.08-76.23,27.59-148.89,70.04-210.03,123.24-3.76,3.27-7.64,6.69-12.42,8.09-9.73,2.85-18.62-3.34-26.91-7.37-9.39-4.57-18.81-9.06-28.09-13.88-6.32-3.28-12.6-6.64-18.83-10.08-3.74-2.06-11.22-4.52-12.74-9.06-1.3-3.86,2.2-7.45,4.16-11.02,2.75-5,2.43-11.53-.79-16.24-2-2.93-4.94-5.09-7.93-7.02-5.75-3.72-11.87-6.82-17.99-9.87-6.69-3.33-14.27-6.68-21.39-4.41-6.59,2.11-11.11,8.62-17.77,10.47-7.06,1.95-13.55-1.77-19.63-4.81-6.05-3.02-12.15-5.97-18.21-8.96-13.46-6.64-26.95-13.21-40.47-19.73-26.48-12.77-53.05-25.38-79.58-38.06-3.4-1.63-6.86-3.27-10.49-4.2-.87-.22-1.75-.4-2.64-.53-12.16-1.77-25.4,7.95-35.89,13-12.75,6.13-25.49,12.28-38.21,18.47-5.31,2.58-10.88,5.39-14.05,10.37-.77,1.21-1.39,2.58-1.41,4.01-.02,1.79.9,3.46,1.98,4.88,2.37,3.12,5.59,5.49,8.81,7.72,7.14,4.94,14.56,9.47,21.98,13.98,38.24,23.23,77.11,45.41,115.29,68.71,8.51,5.2,16.99,10.45,25.43,15.77,6.29,3.97,16.27,7.99,20.7,14.12,3.76,5.21.85,13.39,5,18.29,2.6,3.07,7.12,3.69,11.1,3.19,3.98-.5,7.85-1.91,11.86-2.05,11.07-.4,20.98,8.55,30.01,13.86,10.48,6.16,21.01,12.28,30.9,19.36,3.05,2.18,6.29,5.06,6.27,8.81-.01,2.43-1.46,4.65-3.2,6.35-14.37,14.07-31.52,25.87-46.88,38.88-22.37,18.96-44.57,38.13-66.76,57.31-15.87,13.73-31.38,27.88-47.45,41.38-15.74,13.23-31.57,26.36-47.41,39.48-8.04,6.65-16.08,13.31-24.12,19.96-6.97,5.78-13.63,12.72-21.26,17.61-4.85,3.1-10.56,5.18-16.3,4.76-5.07-.37-9.78-2.61-14.36-4.82-12.8-6.17-25.6-12.33-38.39-18.51-9.77-4.72-21.59-12.63-32.78-12.25-3.54.12-6.95,1.25-10.3,2.38-10.74,3.6-21.47,7.27-32.18,10.97-5.22,1.8-10.5,3.65-15.1,6.7-1.8,1.2-3.55,2.64-4.46,4.6-1.45,3.12-.44,6.95,1.63,9.7,2.07,2.75,5.04,4.66,7.95,6.51Z"/>
      <path class="cls-1" d="m579.02,1317.59c34.87-59.88,84.13-111,141.63-149.51,37.14-24.88,79.99-47.39,123.1-59.73,26.07-7.47,46.37-4.45,70.65,6.19,48.27,21.16,97.14,43.36,148.85,54.79,40.27,8.9,82.91,9.38,110.61-26.94,5.65-7.41,10.2-16.24,9.94-25.55-.23-8.17-5.43-14.54-11.6-19.36-17.05-13.31-41.58-18.15-62.11-22.77-28.51-6.42-57.48-10.85-86.63-13.02-14.99-1.12-30.03-1.64-45.06-1.53-42.76.31-85.47,5.69-126.82,16.73-138.87,37.08-267.5,129.58-343.56,251.76-32.86,52.78-55.42,107.91-68.27,168.65-10.87,51.36-8.53,104.66,9.49,154.18,16.2,44.52,45.96,85.7,84.98,113,33.13,23.18,72.16,36.43,112.29,40.28,69.87,6.71,141.36-13.29,201.76-47.89,13.61-7.8,120.82-75.3,95.7-97.54-4.93-4.37-10.12-3.03-15.73.38-21.97,13.35-39.77,31.95-62.94,44.19-23.08,12.19-47.9,21.09-73.45,26.39-69.87,14.5-152.02,3.29-204.84-47.79-86.15-83.33-74.76-216.79-31.34-318.45,6.81-15.95,14.63-31.47,23.36-46.46Z"/>
      <path class="cls-1" d="m1830.85,1699.42c-4.1,29.97-2.86,63.57,17.25,86.16,32.18,36.13,79.58,16.48,112.2-7.13,38.12-27.59,71.4-59.79,103.72-93.85,17.01-17.92,34.02-35.85,51.03-53.77,8.5-8.96,17.01-17.92,25.51-26.89,5.45-5.74,11.87-16.46,20.73-17.06-.47,5.85-5.15,12.49-8.02,17.57-3.13,5.54-6.45,10.99-9.19,16.74-5.56,11.68-10.64,23.6-15.07,35.75-8.94,24.51-15.41,50.12-17.22,76.2-1.1,15.85-.47,32.35,6.33,46.72,2.01,4.24,4.46,8.3,7.5,11.89,21.22,25.02,57.82,13.12,82.26.18,36.03-19.08,69.57-42.87,99.5-70.57,5.32-4.92,11.29-12.39,7.3-19.95-3.36-6.36-11.87-7.37-17.99-4.9-5.41,2.19-9.8,6.25-14.16,10.13-16.9,15.02-36.05,28.82-58.25,33.13-3.86.75-8.04,1.16-11.57-.56-6.58-3.2-7.88-11.93-7.74-19.25,1.16-59.21,36.61-117.17,64.51-167.6,30.37-54.88,64.22-107.73,97.4-160.93,3.07-4.93,6.21-10.02,7.18-15.74,5.81-34.31-63.61-39.25-84.54-41.55-60.33-6.61-118.27-7.2-175.94,14.8-65.74,25.08-121.78,70.72-168.77,122.27-27.73,30.42-50.68,63.86-70.51,99.79-22,39.84-37.27,83.21-43.45,128.39Zm89.32-9.53c1.15-25.9,5.36-51.61,12.23-76.6,11.52-41.9,30.35-81.79,53.11-118.71,21.31-34.55,46.34-68.34,80.2-91.53,23.24-15.91,51.28-26.31,79.63-26.68,3.5-.05,7.01.06,10.51.33,34.36,2.65,69.96,15.05,103.22,23.84,5.31,1.4,9.78,4.97,8.13,11.08-.81,2.98-2.8,5.48-4.74,7.89-19.92,24.71-40.27,49.07-60.92,73.17-37.89,44.21-76.61,87.74-116.1,130.51-37.24,40.33-75.79,80.39-122.07,110.47-7.17,4.66-16.56,7.36-25.13,6.14-23.4-3.34-18.84-32.67-18.08-49.91Z"/>
      <path class="cls-1" d="m1669.24,1152.66c-4.6,4.58-9.09,9.48-11.57,15.47-1.07,2.58-1.75,5.47-.97,8.15,1.14,3.96,5.28,6.49,9.38,6.85,4.1.36,8.15-1.05,11.89-2.77,17.58-8.1,30.72-24.72,45.94-36.46,15.89-12.24,33.41-23.3,53.08-28.16,35.42-8.77,55.95,19.82,61.07,52.23.85,5.35,1.22,10.73,1.25,16.14.12,20.45-4.64,41.19-6.97,61.26-3.09,26.53-7.16,53.19-16.4,78.37-1.28,3.49-2.82,7.15-5.91,9.21-7.9,5.26-27.48-1.22-36.66-1.99-14.01-1.18-28.12-1.41-42.15-.48-28.27,1.86-56.09,8.48-82.11,19.72-94.81,40.94-174.25,126.01-220.18,217.53-30.36,60.48-55.51,150.16-2.47,206.1,62.34,65.74,156.43,8.04,209.08-40.2,56.98-52.21,102.27-115.65,143.5-180.62,44.36-69.89,82.29-141.88,111.18-219.64,27.54-74.13,89.05-277.7-52.36-272.71-47.95,1.69-93.29,32.02-130.39,59.81-13.34,9.99-26.4,20.43-38.22,32.19Zm113.77,282.6c-19.21,59.27-44.43,116.73-75.64,170.68-31.26,54.04-78.91,117.48-141.16,137.54-18.73,6.04-40.79,5.29-56.31-6.82-14.05-10.97-20.47-29.29-22.14-47.04-9.81-104,30.44-243.81,130.12-293.59,15.97-7.97,33.87-11.8,52.35-12.65,34.03-1.56,70.01,6.97,99.45,18.25,8.05,3.09,15.38,6.9,16.32,16.46.58,5.83-1.2,11.6-3,17.17Z"/>
      <path class="cls-1" d="m1100.65,1673.43c14.3-12.62,34.12-21.78,50.21-32.17,18.43-11.91,36.79-23.93,55.03-36.12,35.55-23.76,70.67-48.16,105.09-73.52,40.3-29.7,81.97-61.03,105.57-106.44,5.82-11.2,10.58-23.45,10-36.06-2.58-55.52-64.54-64.72-107.41-57.12-15.28,2.71-30.15,7.31-44.69,12.7-98.13,36.36-172.83,111.37-228.13,198.62-41.45,65.4-82.67,172.53-13.28,234.46,18.17,16.21,41.76,26.23,66.04,28.04,36.43,2.72,73.8-11.98,104.98-29.65,31.79-18.02,63.74-36.93,91.35-61.06,7.52-6.57,14.96-13.62,19.35-22.59,1.44-2.93,2.48-6.56.76-9.33-1.54-2.47-4.74-3.31-7.65-3.34-17.61-.18-32.89,17.04-46.58,26.22-16.61,11.14-34.09,21.27-53.05,27.87-12.12,4.22-25.85,6.86-39.62,7.19-29.34.71-58.85-9.06-73.38-36.3-2.31-4.32-4.03-9.12-3.83-14.01.27-6.74,4.2-12.91,9.25-17.37Zm-10.79-30.06c-1.45-1.54-1.46-3.91-1.34-6.02,1.15-20.96,5.35-41.77,11.62-61.78,15.89-50.65,44.13-96.79,78.84-136.71,27.97-32.17,67.8-61.05,112.25-60.87,25.63.11,42.84,16.77,43.57,42.27.12,4.18-.21,8.35-.97,12.33-4.24,22.19-17.77,41.61-32.44,58.25-20.02,22.7-42.87,42.76-66.79,61.23-21.4,16.52-43.73,31.8-66.27,46.72-22.64,14.98-44.95,31.94-69.18,44.24-2.97,1.51-7,2.77-9.29.35Z"/>
      <path class="cls-1" d="m2402.64,1438.47c5.47,1.24,11.16-.73,16.11-3.36,17.16-9.1,29.04-25.78,46.7-34.08,11.44-5.37,33.01-16.25,40.93-.09,1.61,3.28,1.66,7.09,1.5,10.75-2.38,55.12-40.28,105.13-64.38,152.67-35.4,69.22-74.38,136.51-109.86,205.66-2.53,4.94-5.12,10.43-3.83,15.83,1.9,7.99,11.07,11.68,19.16,13.11,16.09,2.84,36.95,2.69,51.9-4.85,12.03-6.07,21.01-16.98,27.58-28.53,20.81-36.57,97.14-189.98,121.49-225.71,30.63-44.96,60.9-90.09,103.03-125.34,4.28-3.58,8.83-7.12,14.21-8.58,6-1.62,12.35-.46,18.45.69,16.2,3.08,32.4,6.15,48.6,9.23,22.95,4.36,47.32,8.61,69.13.22,16.88-6.49,30.33-20.07,39.65-35.58,5.95-9.91,10.36-22.67,4.61-32.7-4.58-8-14.13-11.55-23.09-13.72-57.33-13.85-119.21,5.76-165.85,41.85-24.64,19.07-45.67,42.42-69.82,62.11,6.53-24.6,14.51-49.38,8.05-74.19-1.08-4.17-2.19-8.39-4.32-12.13-16.92-29.68-58.71-22.71-84.94-11.79-20.53,8.55-39.25,20.8-56.79,34.35-17.98,13.89-36.03,28.71-52.19,44.69-2.12,2.09-4.27,4.39-4.95,7.28-1.29,5.46,3.48,10.94,8.95,12.18Z"/>
      <path class="cls-1" d="m2972.89,1385.5c5.62-4.19,12.31-7.3,19.32-7.37,7.89-.08,15.26,3.63,22.27,7.25,36.39,18.8,83.64,47.38,124.55,26.97,18.33-9.15,33.96-26.97,33.93-47.45-.03-15.54-11.56-21.07-24.93-25.02-68.79-20.3-148.93-5.53-208.52,33.85-18.35,12.13-34.69,27.77-45.55,46.9-25.95,45.7-10.43,95.2,11.56,138.91,21.31,42.33,58.43,90.83,47.89,141.03-12.44,59.23-94.2,86.74-138.33,43.46-15.01-14.72-22.11-38.15-14.54-57.77,5.32-13.78,17.75-29.48,2.31-41.14-17.78-13.43-62.21,40.57-70.47,52.28-8.4,11.91-14.4,26-14.35,40.58.16,44.35,47.89,66.29,85.91,67.88,4.07.17,8.22.22,12.42.15,87.15-1.4,200.33-53.52,212.06-148.22,4.97-40.17-13.48-78.29-32.03-112.63-15.55-28.79-33.16-58.36-40.02-90.74-5.35-25.28-6.84-51.47,16.54-68.91Z"/>
      <path class="cls-1" d="m1678.5,1990.18c10.67-2.64,16.91-19.96,26.28-33.54,7.34-10.61,18.95-12.4,25.94-3.66,9.63,12.12,15.2,28.62,25.57,35.09,7.24,4.47,17.36-5.73,25.17-18.46,7.62-12.52,15.49-26.51,23.27-26.35v-.04c871.36-.55,1558.71-6.75,1558.71-6.75,0,0-687.35-6.24-1558.71-6.79h0c-7.78.14-15.65-13.87-23.27-26.39-7.81-12.72-17.93-22.97-25.17-18.46-10.37,6.42-15.94,22.97-25.57,35.05-6.99,8.78-18.6,6.99-25.94-3.66-9.37-13.58-15.61-30.86-26.28-33.5-21.43-5.16-39.28,52.89-52.22,41.47-10.31-9.15-15.7-25.78-25.57-36.02-6.79-6.99-17.87-2.2-25.15,8.86-7.65,11.55-13.48,27.99-21.35,32.61v.04c-489.5.32-920.56,2.44-1203.78,4.22-33.11-14.16-72.02-28.52-99.2-52.43-52.41-46.12-63.15-119.41-65.41-185.4-5.57-163.07,69.69-320.87,149.28-458.01,106.67-183.8,245.71-347.62,405.66-487.21,68.6-59.87,217.39-176.01,219.17-179.16-4.2-.47-74.89,33.08-105.13,52.03-271.13,169.89-496.9,414.81-631.05,706.44-66.65,144.9-114.41,312.57-60.49,469.39,8.2,23.86,19.11,46.96,34.23,67.16,19.64,26.23,45.32,49.91,76.52,59.8,11.79,3.74,23.1,6.16,33.28,7.68-193.56,1.26-307.29,2.29-307.29,2.29,0,0,684.99,6.18,1554.2,6.75v.04c7.87,4.59,13.7,21.02,21.35,32.61,7.28,11.06,18.36,15.86,25.15,8.82,9.88-10.25,15.27-26.83,25.57-35.98,12.95-11.47,30.8,46.63,52.22,41.47Z"/>
      <path class="cls-1" d="m2762.96,997.48c2.56,1.35,2.38.85,11.54,4.05,9.52,3.33,9.6,3.84,13.09,4.43,4.61.78,5.92.14,9.81,1.52,3.84,1.36,6.58,3.42,7.35,4.01,2.86,2.21,3.07,3.35,7.19,6.8,2.09,1.76,3.17,2.65,4.62,3.24.67.28,4.37,1.81,8.16.5,2.33-.81,3.13-2.15,8.52-8.5,2.7-3.18,3.23-4,3.94-4.69.23-.23.43-.39.48-.43,5-4.31,10.94-3.72,10.94-3.72.33.03,7.23.81,9.54,5.59,1.04,2.15.11,2.97,1.11,4.78,2.05,3.73,9,5.84,13.33,3.2,3.85-2.34,4.19-7.57,4.42-11.1.47-7.25-2.29-10.33-3.61-17.62-1.06-5.87-.41-10.15.75-17.66,6.22-40.52,38.36-67.9,38.36-67.9,33.94-33.94,80.44-26.98,91.04-25.65,9.73,1.22,31.93,4.29,53.47,20.7,42.55,32.42,42.04,86.07,41.92,90.76-1.14,43.81-27.8,71.62-33.06,76.89-2.71,2.72-43.47,42.32-96.84,32.17-16.49-3.14-29.03-10.04-36.99-15.39,33.75-18.19,67.92-35.18,99.7-56.75,8.87-6.02,17.76-12.38,24.42-20.89,1.1-1.4,2.17-3.3,1.3-4.86-2.64-4.73-15.12.7-18.81,1.71-35.48,9.77-71.22,18.92-106.36,29.84-17.89,5.56-35.79,11.7-54.48,13.93-7.09.85-13.1.64-20.02-1.2-9.42-2.51-18.84-5.02-28.26-7.53-2.82-.75-6.2-1.38-8.34.6-8.75,8.07,6.8,28.92,10.9,35.97,25.08,43.17,74.77,79.33,125.45,81.66,0-9.79,3.83-20.56,3.83-30.34,2.56,28.8,2.28,62.34,18.51,87.58,1.26,1.96,3.22,3.71,5.55,3.77,3.23.08,5.57-2.96,7.15-5.77,6.9-12.28,7.89-26.97,15.31-39.02,6.76-10.99,18.67-14.07,30.36-17.54,58.1-17.24,107.39-67.42,117.22-128.12-10.2-.34-20.4-.67-30.61-1.01,13.84-8.77,29.47-14.22,45.3-18.15,15.43-3.84,31.54-6.23,45.63-14.09,1.67-.93,3.45-2.2,3.71-4.1.29-2.12-1.46-3.94-3.19-5.21-9.97-7.35-22.9-8.66-34.42-12.28-9.17-2.88-18.43-7.77-22.9-16.28-3.98-7.59-4.74-16.85-7.72-24.9-3.03-8.2-6.43-16.27-9.95-24.27-9.51-21.63-34.37-51.1-69.07-70.17-11.8-6.48-31.32-15.39-57.56-19.36v19.3c0-2.6-1.99-6.25-2.63-8.85-.86-3.48-1.53-7.01-2.13-10.54-3.14-18.34-3.45-40.82-15.79-55.91-1.47-1.8-3.17-3.5-5.32-4.37-4.95-2.01-8.48,1.86-10.58,5.87-6.36,12.14-8.12,25.64-10.96,38.85-.89,4.14-2.52,8.33-5.74,11.08-6.44,5.51-15.8,5.16-23.61,7.01-11.53,2.74-22.08,7.95-32.72,13-28.92,13.74-48.71,38.2-55.48,46.57-18.06,22.33-29.98,44.77-33.82,61.27,2.63-11.28,23.94-.73,35.53-.73-9.67,7.19-21.45,14.85-35.41,21.93-22.09,11.2-42.61,17.37-58.91,20.91-3.84,1.81-4.44,3.77-4.58,4.56-.84,4.89,8.49,9.82,10.42,10.84Z"/>
      <path class="cls-1" d="m2957.89,959.32c0-5.25-4.25-9.5-9.5-9.5s-9.5,4.25-9.5,9.5,4.25,9.5,9.5,9.5,9.5-4.25,9.5-9.5Z"/>
      <circle class="cls-1" cx="3005.4" cy="952.32" r="7.75"/>
      <path class="cls-1" d="m2994.65,986.35c0-2.55-2.07-4.63-4.63-4.63s-4.63,2.07-4.63,4.63,2.07,4.63,4.63,4.63,4.63-2.07,4.63-4.63Z"/>
    </g>
  </g>
</svg>